<svg xmlns="http://www.w3.org/2000/svg" width="24" height="24" fill="none" viewBox="0 0 24 24"><path fill="#000" d="m12 21-.237.712a.75.75 0 0 0 .474 0zM4 4l-.182-.728-.568.142V4zm8-2 .182-.728a.75.75 0 0 0-.364 0zm8 2h.75v-.586l-.568-.142zM8.715 14.561a.75.75 0 0 0 1.216.878L9.323 15zm5.354.878a.75.75 0 1 0 1.216-.878l-.608.439zm2.156-4.691a.75.75 0 1 0-.45-1.43l.225.715zM12.75 7a.75.75 0 1 0-1.5 0h1.5M8.225 9.317a.75.75 0 0 0-.45 1.43L8 10.034zM12 21c.237-.712.238-.711.238-.711h-.002l-.011-.005a6 6 0 0 1-.287-.11 12 12 0 0 1-.85-.388 13.5 13.5 0 0 1-2.604-1.713C6.6 16.484 4.75 13.97 4.75 10.167h-1.5c0 4.363 2.149 7.265 4.266 9.052 1.056.89 2.108 1.51 2.897 1.907a13 13 0 0 0 1.239.546l.1.036.007.002.002.001h.001zM4 10.167h.75V4h-1.5v6.167zM4 4l.182.728 8-2L12 2l-.182-.728-8 2zm8 17c.237.712.238.711.238.711h.003q.003-.002.007-.003l.1-.036q.1-.036.278-.108c.235-.095.566-.24.961-.438a15 15 0 0 0 2.897-1.907c2.117-1.787 4.266-4.689 4.266-9.052h-1.5c0 3.803-1.851 6.317-3.734 7.906a13.5 13.5 0 0 1-2.603 1.713 12 12 0 0 1-1.082.478q-.038.014-.056.02l-.011.004h-.002zm8-10.833h.75V4h-1.5v6.167zM20 4l.182-.728-8-2L12 2l-.182.728 8 2zM9.323 15l.608.439 2.677-3.708-.608-.44-.608-.438-2.677 3.708zM12 11.292l-.608.439 2.677 3.708.608-.439.608-.439-2.677-3.708zm0 0 .225.715 4-1.26-.225-.714-.225-.716-4 1.26zm0 0h.75V7h-1.5v4.292zm0 0 .225-.716-4-1.259-.225.716-.225.715 4 1.26z"/></svg>