<svg xmlns="http://www.w3.org/2000/svg" width="24" height="24" fill="none" viewBox="0 0 24 24"><path stroke="#000" stroke-width="1.5" d="M14 15h-4m4 0a1.5 1.5 0 1 0 1.033-1.426M14 15a1.5 1.5 0 0 1 1.033-1.426m-6.066 0a1.5 1.5 0 1 1-.936 2.852 1.5 1.5 0 0 1 .936-2.852Zm0 0 2.112-3.89m3.954 3.89-2.112-3.89m-1.842 0c.254.198.574.316.921.316s.667-.118.921-.316a1.5 1.5 0 1 0-1.842 0Zm10.614 1.236q.615 1.08 0 2.16l-3.926 6.84Q17.153 21 15.915 21h-7.83q-1.239 0-1.852-1.08l-3.926-6.84q-.615-1.08 0-2.16l3.926-6.84Q6.847 3 8.085 3h7.83q1.239 0 1.852 1.08z"/></svg>